<svg id="svg" version="1.1" xmlns="http://www.w3.org/2000/svg" xmlns:xlink="http://www.w3.org/1999/xlink" width="400" height="208.88888888888889" viewBox="0, 0, 400,208.88888888888889"><g id="svgg"><path id="path0" d="M139.326 56.355 C 139.249 56.432,139.185 77.170,139.185 102.438 L 139.185 148.380 178.056 148.380 L 216.928 148.380 216.928 102.297 L 216.928 56.213 206.635 56.268 L 196.343 56.322 196.290 92.006 L 196.237 127.691 178.056 127.691 L 159.876 127.691 159.823 92.006 L 159.770 56.322 149.619 56.268 C 144.036 56.238,139.404 56.277,139.326 56.355 M299.826 56.357 C 299.749 56.433,299.687 77.170,299.687 102.438 L 299.687 148.380 328.109 148.380 L 356.531 148.380 356.531 138.037 L 356.531 127.693 338.506 127.640 L 320.481 127.586 320.481 102.299 L 320.481 77.011 338.506 76.958 L 356.531 76.905 356.531 66.561 L 356.531 56.217 328.248 56.217 C 312.692 56.217,299.902 56.280,299.826 56.357 M369.420 56.355 C 369.343 56.432,369.279 77.170,369.279 102.438 L 369.279 148.380 379.624 148.380 L 389.970 148.380 389.917 102.351 L 389.864 56.322 379.713 56.268 C 374.130 56.238,369.498 56.277,369.420 56.355 M10.658 102.717 L 10.658 148.380 49.007 148.380 C 70.099 148.380,87.356 148.327,87.356 148.262 C 87.356 148.197,86.714 147.045,85.928 145.702 C 85.143 144.359,83.532 141.567,82.348 139.498 C 81.164 137.429,79.992 135.408,79.744 135.005 C 79.495 134.603,78.450 132.794,77.420 130.985 L 75.549 127.696 53.448 127.694 L 31.348 127.691 31.348 102.717 L 31.348 77.743 38.976 77.743 C 43.171 77.743,46.604 77.700,46.604 77.648 C 46.604 77.596,45.555 75.739,44.272 73.521 C 42.989 71.303,41.124 68.077,40.127 66.353 C 39.130 64.629,37.522 61.833,36.555 60.140 L 34.796 57.061 22.727 57.057 L 10.658 57.053 10.658 102.717 M47.858 57.192 C 47.858 57.268,48.079 57.714,48.349 58.184 C 49.305 59.847,54.641 69.115,56.482 72.309 C 57.508 74.091,58.641 76.042,58.999 76.646 L 59.649 77.743 82.907 77.743 L 106.165 77.743 106.165 102.717 L 106.165 127.691 97.388 127.691 C 92.560 127.691,88.610 127.745,88.610 127.811 C 88.610 127.877,90.479 131.192,92.762 135.178 C 98.286 144.819,99.074 146.186,100.731 149.007 C 102.048 151.248,103.063 153.003,108.045 161.651 C 109.105 163.490,110.220 165.418,110.524 165.935 L 111.076 166.876 111.181 157.680 L 111.285 148.485 119.070 148.430 L 126.855 148.375 126.855 102.714 L 126.855 57.053 87.356 57.053 C 65.632 57.053,47.858 57.116,47.858 57.192 " stroke="none" fill="#fbfbfb" fill-rule="evenodd"></path><path id="path1" d="M240.795 38.738 C 231.346 48.205,223.615 56.010,223.615 56.084 C 223.615 56.157,228.129 56.217,233.646 56.217 L 243.676 56.217 243.729 74.138 L 243.783 92.059 258.254 92.112 L 272.725 92.166 272.778 74.244 L 272.832 56.322 282.811 56.268 C 288.299 56.238,292.790 56.149,292.790 56.070 C 292.790 55.831,258.439 21.526,258.199 21.526 C 258.076 21.526,250.244 29.271,240.795 38.738 M243.678 130.512 L 243.678 148.380 233.856 148.380 C 228.454 148.380,224.033 148.451,224.033 148.538 C 224.033 148.624,231.722 156.383,241.119 165.779 L 258.204 182.863 275.296 165.770 C 284.697 156.368,292.322 148.609,292.241 148.528 C 292.160 148.447,287.736 148.380,282.410 148.380 L 272.727 148.380 272.727 130.512 L 272.727 112.644 258.203 112.644 L 243.678 112.644 243.678 130.512 " stroke="none" fill="#e3242b" fill-rule="evenodd"></path><path id="path2" d="M0.000 104.493 L 0.000 208.986 200.000 208.986 L 400.000 208.986 400.000 104.493 L 400.000 0.000 200.000 0.000 L 0.000 0.000 0.000 104.493 M292.870 56.257 C 292.812 56.350,288.304 56.426,282.851 56.426 L 272.936 56.426 272.936 74.295 L 272.936 92.163 258.307 92.163 L 243.678 92.163 243.678 74.295 L 243.678 56.426 233.682 56.426 C 228.184 56.426,223.619 56.360,223.537 56.279 C 223.456 56.197,231.222 48.298,240.796 38.724 L 258.202 21.317 275.588 38.702 C 285.151 48.264,292.928 56.164,292.870 56.257 M160.032 91.798 L 160.085 127.484 178.109 127.431 L 196.134 127.377 196.187 91.693 L 196.239 56.008 206.666 56.008 C 215.980 56.008,217.106 56.044,217.219 56.339 C 217.476 57.008,217.362 148.346,217.104 148.505 C 216.823 148.679,142.745 148.815,140.491 148.646 L 138.976 148.532 138.976 102.268 L 138.976 56.004 149.478 56.059 L 159.979 56.113 160.032 91.798 M356.637 56.479 C 356.700 56.737,356.725 61.463,356.693 66.980 L 356.635 77.011 338.610 77.065 L 320.585 77.118 320.585 102.299 L 320.585 127.479 338.610 127.533 L 356.635 127.586 356.635 138.036 L 356.635 148.485 328.056 148.538 L 299.478 148.591 299.478 102.300 L 299.478 56.008 328.000 56.008 L 356.523 56.008 356.637 56.479 M390.126 102.351 L 390.179 148.589 379.624 148.589 L 369.070 148.589 369.070 102.297 L 369.070 56.004 379.572 56.059 L 390.073 56.113 390.126 102.351 M35.578 58.046 C 35.983 58.707,36.758 60.047,37.299 61.024 C 37.841 62.001,38.628 63.389,39.048 64.108 C 39.468 64.828,40.600 66.803,41.564 68.497 C 42.527 70.191,43.480 71.818,43.681 72.111 C 43.882 72.403,44.297 73.109,44.602 73.678 C 44.908 74.247,45.526 75.324,45.974 76.071 C 46.423 76.818,46.795 77.546,46.802 77.688 C 46.810 77.888,45.075 77.959,39.133 78.002 L 31.452 78.056 31.452 102.717 L 31.452 127.377 53.546 127.482 L 75.639 127.586 76.228 128.527 C 76.552 129.044,77.557 130.784,78.462 132.393 C 79.368 134.002,80.315 135.648,80.567 136.050 C 81.046 136.815,81.262 137.187,83.108 140.439 C 83.728 141.531,84.326 142.565,84.436 142.738 C 84.546 142.910,84.923 143.568,85.273 144.201 C 85.624 144.833,86.278 145.961,86.726 146.708 C 87.175 147.456,87.548 148.185,87.554 148.329 C 87.563 148.538,79.780 148.580,48.955 148.538 L 10.345 148.485 10.291 102.926 C 10.262 77.868,10.282 57.249,10.337 57.106 C 10.415 56.901,13.069 56.844,22.639 56.844 L 34.841 56.844 35.578 58.046 M127.168 102.717 L 127.168 148.485 119.279 148.540 L 111.390 148.594 111.390 158.009 C 111.390 163.684,111.313 167.376,111.198 167.304 C 111.092 167.239,110.777 166.786,110.497 166.299 C 110.218 165.812,109.632 164.801,109.196 164.054 C 108.394 162.682,106.486 159.358,105.177 157.053 C 104.785 156.364,104.128 155.235,103.717 154.545 C 102.843 153.078,102.027 151.654,101.144 150.052 C 100.795 149.420,100.215 148.433,99.855 147.858 C 99.494 147.283,98.854 146.202,98.433 145.455 C 98.012 144.707,97.134 143.180,96.483 142.060 C 95.831 140.941,95.298 139.938,95.298 139.831 C 95.298 139.725,95.221 139.606,95.128 139.568 C 95.034 139.530,94.673 138.981,94.325 138.349 C 93.976 137.717,93.232 136.400,92.671 135.423 C 91.161 132.794,91.074 132.642,90.321 131.315 C 89.940 130.643,89.354 129.624,89.020 129.049 C 88.685 128.474,88.409 127.887,88.406 127.743 C 88.402 127.538,90.314 127.482,97.283 127.482 L 106.165 127.482 106.165 102.718 L 106.165 77.954 82.818 77.901 L 59.472 77.847 58.801 76.698 C 58.432 76.066,57.855 75.078,57.520 74.504 C 57.003 73.619,55.944 71.781,54.551 69.350 C 54.375 69.045,53.923 68.245,53.544 67.574 C 53.166 66.903,52.486 65.742,52.034 64.995 C 51.581 64.248,50.683 62.696,50.037 61.546 C 49.391 60.397,48.592 58.986,48.261 58.412 C 47.930 57.837,47.656 57.249,47.654 57.105 C 47.650 56.896,55.666 56.854,87.409 56.896 L 127.168 56.949 127.168 102.717 M272.936 130.512 L 272.936 148.380 282.759 148.380 C 288.161 148.380,292.581 148.451,292.581 148.537 C 292.581 148.775,258.443 182.863,258.204 182.863 C 257.964 182.863,223.824 148.777,223.824 148.538 C 223.824 148.451,228.292 148.380,233.751 148.380 L 243.678 148.380 243.678 130.512 L 243.678 112.644 258.307 112.644 L 272.936 112.644 272.936 130.512 " stroke="none" fill="#242424" fill-rule="evenodd"></path><path id="path3" d="M299.574 56.270 C 299.520 56.413,299.499 77.220,299.528 102.508 L 299.582 148.485 328.004 148.486 L 356.426 148.487 328.056 148.433 L 299.686 148.379 299.738 102.350 L 299.791 56.322 328.213 56.216 L 356.635 56.111 328.154 56.059 C 305.524 56.019,299.653 56.062,299.574 56.270 M138.976 102.403 L 138.976 148.589 178.056 148.589 L 217.137 148.589 217.085 102.351 L 217.033 56.113 216.980 102.247 L 216.927 148.380 178.055 148.380 L 139.183 148.380 139.236 102.299 C 139.266 76.954,139.219 56.217,139.133 56.217 C 139.046 56.217,138.976 77.001,138.976 102.403 M159.875 92.017 L 159.979 127.795 160.032 92.174 C 160.061 72.582,160.014 56.482,159.927 56.396 C 159.841 56.309,159.817 72.339,159.875 92.017 M369.122 102.351 L 369.175 148.485 379.624 148.485 L 390.073 148.485 390.126 102.519 C 390.155 77.237,390.108 56.482,390.021 56.395 C 389.935 56.309,389.888 76.970,389.917 102.309 L 389.971 148.380 379.624 148.380 L 369.277 148.380 369.330 102.299 C 369.360 76.954,369.313 56.217,369.226 56.217 C 369.140 56.217,369.093 76.978,369.122 102.351 M10.546 57.106 C 10.491 57.249,10.471 77.868,10.500 102.926 L 10.554 148.485 48.892 148.538 C 69.978 148.567,87.301 148.520,87.387 148.433 C 87.474 148.347,70.245 148.300,49.101 148.329 L 10.658 148.383 10.658 102.720 L 10.658 57.057 22.727 57.001 L 34.796 56.945 22.721 56.895 C 13.215 56.855,10.624 56.900,10.546 57.106 M47.649 57.087 C 47.649 57.365,48.658 59.143,48.816 59.143 C 48.873 59.143,48.681 58.735,48.389 58.237 C 48.097 57.738,47.858 57.268,47.858 57.192 C 47.858 57.117,61.894 57.031,79.049 57.001 L 110.240 56.947 78.945 56.896 C 55.280 56.857,47.649 56.904,47.649 57.087 M126.907 102.662 L 126.855 148.375 119.070 148.430 L 111.285 148.485 111.227 157.680 L 111.169 166.876 110.739 166.353 L 110.310 165.831 110.686 166.510 C 111.356 167.721,111.390 167.313,111.390 157.889 L 111.390 148.589 119.129 148.589 C 125.128 148.589,126.890 148.531,126.967 148.328 C 127.022 148.184,127.042 127.565,127.012 102.508 L 126.958 56.949 126.907 102.662 M49.425 60.397 C 49.604 60.742,49.797 61.024,49.854 61.024 C 49.911 61.024,49.813 60.742,49.634 60.397 C 49.456 60.052,49.263 59.770,49.206 59.770 C 49.148 59.770,49.247 60.052,49.425 60.397 M38.678 63.845 C 38.936 64.305,39.237 64.775,39.347 64.890 C 39.660 65.218,38.944 63.894,38.556 63.427 C 38.365 63.197,38.420 63.386,38.678 63.845 M53.356 67.189 C 53.533 67.534,53.834 68.004,54.025 68.234 C 54.216 68.464,54.161 68.276,53.903 67.816 C 53.333 66.802,52.907 66.313,53.356 67.189 M42.649 70.742 C 42.907 71.202,43.208 71.672,43.318 71.787 C 43.630 72.115,42.915 70.791,42.527 70.324 C 42.336 70.094,42.391 70.282,42.649 70.742 M59.112 77.116 L 59.544 77.847 82.802 77.849 L 106.061 77.850 82.811 77.796 C 70.024 77.766,59.559 77.671,59.556 77.585 C 59.554 77.500,59.356 77.194,59.116 76.907 L 58.680 76.385 59.112 77.116 M320.473 77.168 C 320.418 77.312,320.397 88.715,320.427 102.508 L 320.481 127.586 338.506 127.588 L 356.531 127.590 338.558 127.535 L 320.585 127.479 320.585 102.299 L 320.585 77.118 338.610 77.064 L 356.635 77.009 338.604 76.958 C 324.333 76.918,320.551 76.961,320.473 77.168 M38.976 77.743 L 31.243 77.855 38.911 77.904 C 43.851 77.935,46.625 77.878,46.708 77.743 C 46.780 77.628,46.809 77.556,46.773 77.582 C 46.738 77.609,43.229 77.681,38.976 77.743 M42.388 127.638 C 48.517 127.669,58.486 127.669,64.541 127.638 C 70.595 127.608,65.580 127.582,53.396 127.582 C 41.212 127.582,36.259 127.608,42.388 127.638 M88.401 127.755 C 88.401 127.906,88.548 128.211,88.726 128.434 C 89.040 128.826,89.044 128.825,88.831 128.384 C 88.709 128.133,88.610 127.875,88.610 127.811 C 88.610 127.747,92.584 127.670,97.440 127.638 L 106.270 127.582 97.335 127.532 C 90.088 127.491,88.401 127.533,88.401 127.755 M90.138 130.930 C 90.315 131.275,90.616 131.745,90.807 131.975 C 90.998 132.205,90.943 132.017,90.685 131.557 C 90.115 130.543,89.688 130.053,90.138 130.930 M91.641 133.542 C 91.819 133.887,92.012 134.169,92.069 134.169 C 92.127 134.169,92.028 133.887,91.850 133.542 C 91.671 133.197,91.478 132.915,91.421 132.915 C 91.363 132.915,91.462 133.197,91.641 133.542 M79.062 133.856 C 79.238 134.201,79.539 134.671,79.730 134.901 C 79.921 135.131,79.867 134.943,79.608 134.483 C 79.039 133.468,78.612 132.979,79.062 133.856 M94.214 138.036 C 94.447 138.495,94.792 139.060,94.981 139.289 C 95.170 139.519,95.068 139.237,94.754 138.662 C 94.052 137.376,93.629 136.886,94.214 138.036 M95.820 140.857 C 95.999 141.202,96.192 141.484,96.249 141.484 C 96.306 141.484,96.208 141.202,96.029 140.857 C 95.851 140.512,95.658 140.230,95.601 140.230 C 95.543 140.230,95.642 140.512,95.820 140.857 M97.283 143.365 C 97.461 143.710,97.654 143.992,97.712 143.992 C 97.769 143.992,97.670 143.710,97.492 143.365 C 97.314 143.020,97.121 142.738,97.063 142.738 C 97.006 142.738,97.105 143.020,97.283 143.365 M84.864 143.887 C 85.122 144.347,85.423 144.817,85.533 144.932 C 85.846 145.260,85.130 143.936,84.742 143.469 C 84.551 143.239,84.606 143.427,84.864 143.887 M99.784 147.740 C 99.959 148.078,100.196 148.412,100.312 148.484 C 100.428 148.556,100.326 148.280,100.084 147.870 C 99.555 146.973,99.339 146.880,99.784 147.740 M101.123 149.948 C 101.235 150.178,101.481 150.554,101.668 150.784 L 102.008 151.202 101.803 150.784 C 101.690 150.554,101.445 150.178,101.258 149.948 L 100.917 149.530 101.123 149.948 M105.218 157.053 C 105.540 157.628,105.900 158.192,106.018 158.307 C 106.137 158.422,105.971 158.046,105.649 157.471 C 105.328 156.897,104.968 156.332,104.849 156.217 C 104.730 156.102,104.896 156.479,105.218 157.053 M109.613 164.681 C 109.792 165.026,109.985 165.308,110.042 165.308 C 110.100 165.308,110.001 165.026,109.822 164.681 C 109.644 164.336,109.451 164.054,109.394 164.054 C 109.336 164.054,109.435 164.336,109.613 164.681 " stroke="none" fill="#685c5c" fill-rule="evenodd"></path><path id="path4" d="M142.633 56.159 C 152.296 56.305,160.035 56.308,159.947 56.165 C 159.894 56.079,155.130 56.030,149.361 56.056 C 143.592 56.082,140.564 56.128,142.633 56.159 M201.411 56.165 C 204.313 56.198,209.062 56.198,211.964 56.165 C 214.867 56.132,212.492 56.105,206.688 56.105 C 200.883 56.105,198.508 56.132,201.411 56.165 M223.586 56.272 C 223.673 56.359,228.253 56.406,233.764 56.376 L 243.783 56.322 233.605 56.217 C 228.007 56.160,223.499 56.184,223.586 56.272 M282.863 56.214 L 272.832 56.322 272.830 74.190 L 272.828 92.059 272.883 74.242 L 272.939 56.426 282.852 56.426 C 289.235 56.426,292.811 56.352,292.894 56.217 C 292.966 56.102,292.995 56.030,292.959 56.058 C 292.924 56.085,288.380 56.155,282.863 56.214 M372.727 56.159 C 382.390 56.305,390.129 56.308,390.041 56.165 C 389.988 56.079,385.224 56.030,379.455 56.056 C 373.686 56.082,370.658 56.128,372.727 56.159 M217.240 102.403 C 217.240 127.748,217.264 138.117,217.294 125.444 C 217.323 112.772,217.323 92.035,217.294 79.363 C 217.264 66.690,217.240 77.059,217.240 102.403 M356.628 66.667 C 356.628 72.356,356.655 74.684,356.687 71.839 C 356.720 68.994,356.720 64.339,356.687 61.494 C 356.655 58.649,356.628 60.977,356.628 66.667 M10.380 56.984 C 10.186 57.177,10.203 148.333,10.397 148.453 C 10.483 148.506,10.554 127.916,10.554 102.697 C 10.554 77.478,10.546 56.844,10.536 56.844 C 10.527 56.844,10.456 56.907,10.380 56.984 M118.653 57.000 L 127.066 57.058 127.012 102.813 C 126.983 127.979,127.030 148.498,127.116 148.411 C 127.203 148.325,127.250 127.710,127.221 102.601 L 127.168 56.949 118.704 56.945 L 110.240 56.942 118.653 57.000 M272.827 130.512 C 272.827 140.397,272.853 144.410,272.884 139.430 C 272.915 134.451,272.915 126.363,272.884 121.458 C 272.853 116.553,272.827 120.627,272.827 130.512 M178.056 127.482 L 159.979 127.590 178.109 127.640 C 190.089 127.674,196.238 127.620,196.238 127.482 C 196.238 127.367,196.215 127.295,196.186 127.323 C 196.157 127.351,187.999 127.422,178.056 127.482 M356.628 138.036 C 356.628 143.783,356.655 146.104,356.687 143.193 C 356.720 140.283,356.720 135.581,356.687 132.744 C 356.655 129.907,356.628 132.288,356.628 138.036 M223.824 148.503 C 223.824 148.608,231.560 156.406,241.014 165.831 L 258.203 182.968 241.066 165.735 C 231.641 156.257,223.905 148.459,223.877 148.406 C 223.848 148.354,223.824 148.397,223.824 148.503 M275.340 165.726 L 258.204 182.968 275.436 165.787 C 284.914 156.338,292.625 148.579,292.572 148.546 C 292.520 148.512,284.765 156.243,275.340 165.726 M145.611 148.746 C 148.284 148.779,152.657 148.779,155.329 148.746 C 158.002 148.713,155.815 148.686,150.470 148.686 C 145.125 148.686,142.939 148.713,145.611 148.746 M199.962 148.746 C 202.182 148.780,205.755 148.780,207.903 148.746 C 210.051 148.712,208.234 148.684,203.866 148.684 C 199.498 148.684,197.741 148.712,199.962 148.746 " stroke="none" fill="#4c4c4c" fill-rule="evenodd"></path></g></svg>